<svg xmlns="http://www.w3.org/2000/svg" width="20" height="20" viewBox="0 0 20 20">
  <g id="x-square-svgrepo-com" transform="translate(-2 -2)">
    <path id="Path_203" d="M12,3.538c-2.169,0-5.134.2-6.985.342A1.228,1.228,0,0,0,3.881,5.015C3.738,6.866,3.538,9.831,3.538,12s.2,5.134.342,6.985a1.228,1.228,0,0,0,1.134,1.134c1.851.143,4.816.342,6.985.342s5.134-.2,6.985-.342a1.229,1.229,0,0,0,1.134-1.134c.143-1.851.342-4.816.342-6.985s-.2-5.134-.342-6.985a1.228,1.228,0,0,0-1.134-1.134C17.134,3.738,14.169,3.538,12,3.538ZM4.9,2.347C6.748,2.2,9.765,2,12,2s5.252.2,7.1.347A2.767,2.767,0,0,1,21.653,4.9C21.8,6.748,22,9.765,22,12s-.2,5.252-.347,7.1A2.767,2.767,0,0,1,19.1,21.653C17.252,21.8,14.234,22,12,22s-5.252-.2-7.1-.347A2.767,2.767,0,0,1,2.347,19.1C2.2,17.252,2,14.234,2,12s.2-5.252.347-7.1A2.767,2.767,0,0,1,4.9,2.347Z" fill="#030d45" fill-rule="evenodd"/>
    <path id="edit-svgrepo-com" d="M9.035,2.477a1.645,1.645,0,0,1,2.318,0l.7.694a1.623,1.623,0,0,1,0,2.3L5.5,12a1.643,1.643,0,0,1-1.159.477H2.447A.446.446,0,0,1,2,12.029v-1.88A1.625,1.625,0,0,1,2.48,9Zm1.686.629a.748.748,0,0,0-1.053,0L8.443,4.324l1.752,1.742,1.225-1.218a.738.738,0,0,0,0-1.048ZM9.562,6.695,7.81,4.953l-4.7,4.673a.739.739,0,0,0-.218.524v1.435H4.337a.747.747,0,0,0,.527-.217Z" transform="translate(4.734 4.763)" fill="#030d45" fill-rule="evenodd"/>
  </g>
</svg>
