<svg xmlns="http://www.w3.org/2000/svg" width="50" height="50" viewBox="0 0 50 50">
  <g id="heroku_icon" transform="translate(-19410 2191)">
    <path id="cup" d="M1036,372h-4v2a10,10,0,0,1-10,10h-16a10,10,0,0,1-10-10V350a4,4,0,0,1,4-4h28a4,4,0,0,1,4,4v6h4a8,8,0,0,1,0,16Zm-8-22h-28v24a6,6,0,0,0,6,6h16a6,6,0,0,0,6-6Zm8,10h-4v8h4a4,4,0,0,0,0-8Zm-14-18a2,2,0,0,1-2-2v-2a2,2,0,1,1,4,0v2A2,2,0,0,1,1022,342Zm-8,0a2,2,0,0,1-2-2v-2a2,2,0,1,1,4,0v2A2,2,0,0,1,1014,342Zm-8,0a2,2,0,0,1-2-2v-2a2,2,0,0,1,4,0v2A2,2,0,0,1,1006,342Z" transform="translate(18415 -2526)" stroke="#000" stroke-width="2" fill-rule="evenodd"/>
    <path id="heroku-svgrepo-com" d="M7.73,7.656a30.376,30.376,0,0,0,.15,4.288c.064,0,1.179-.343,2.487-.75a9.192,9.192,0,0,1,3.559-.708l1.2.064.064,4.973.043,4.994H17.8V15.287c0-5.08-.021-5.23-.493-5.938-.858-1.286-3.065-1.565-5.81-.75l-.986.3V3.368H7.729V7.656Zm7.4-2.722c-.472.836-.879,1.608-.922,1.693-.043.107.536.171,1.286.171h1.35l.771-1.243c1.479-2.315,1.5-2.187-.171-2.187H15.983l-.858,1.565Zm-7.4,12.9A9.537,9.537,0,0,0,7.9,20.3,8.988,8.988,0,0,0,9.294,19.06l1.222-1.243L9.273,16.595A9.621,9.621,0,0,0,7.88,15.373a10.164,10.164,0,0,0-.15,2.465Z" transform="translate(19416.291 -2172.394)" stroke="#000" stroke-width="1"/>
  </g>
</svg>
