<svg xmlns="http://www.w3.org/2000/svg" width="20" height="20" viewBox="0 0 20 20">
  <g id="arrow-down-svgrepo-com" transform="translate(-2 -2)">
    <path id="Path_201" d="M12,3.538c-2.169,0-5.134.2-6.985.342A1.228,1.228,0,0,0,3.881,5.015C3.738,6.866,3.538,9.831,3.538,12s.2,5.134.342,6.985a1.228,1.228,0,0,0,1.134,1.134c1.851.143,4.816.342,6.985.342s5.134-.2,6.985-.342a1.229,1.229,0,0,0,1.134-1.134c.143-1.851.342-4.816.342-6.985s-.2-5.134-.342-6.985a1.228,1.228,0,0,0-1.134-1.134C17.134,3.738,14.169,3.538,12,3.538ZM4.9,2.347C6.748,2.2,9.765,2,12,2s5.252.2,7.1.347A2.767,2.767,0,0,1,21.653,4.9C21.8,6.748,22,9.765,22,12s-.2,5.252-.347,7.1A2.767,2.767,0,0,1,19.1,21.653C17.252,21.8,14.234,22,12,22s-5.252-.2-7.1-.347A2.767,2.767,0,0,1,2.347,19.1C2.2,17.252,2,14.234,2,12s.2-5.252.347-7.1A2.767,2.767,0,0,1,4.9,2.347Z" fill="#030d45" fill-rule="evenodd"/>
    <path id="heroku-svgrepo-com" d="M7.729,5.564a15.561,15.561,0,0,0,.077,2.2c.033,0,.6-.176,1.274-.384A4.709,4.709,0,0,1,10.9,7.014l.615.033.033,2.548.022,2.559h1.318V9.473c0-2.6-.011-2.679-.253-3.042-.439-.659-1.57-.8-2.976-.384L9.157,6.2V3.368H7.729v2.2ZM11.518,4.17c-.242.428-.45.824-.472.867s.274.088.659.088H12.4l.4-.637c.758-1.186.769-1.12-.088-1.12h-.747l-.439.8ZM7.729,10.78a4.885,4.885,0,0,0,.088,1.263,4.6,4.6,0,0,0,.714-.637l.626-.637-.637-.626a4.929,4.929,0,0,0-.714-.626,5.207,5.207,0,0,0-.077,1.263Z" transform="translate(1.459 4.24)" fill="#030d45"/>
  </g>
</svg>