<svg xmlns="http://www.w3.org/2000/svg" width="20" height="20" viewBox="0 0 20 20">
  <g id="chart-square-1-svgrepo-com" transform="translate(22 -2) rotate(90)">
    <path id="Path_204" d="M12,3.538c-2.169,0-5.134.2-6.985.342A1.228,1.228,0,0,0,3.881,5.015C3.738,6.866,3.538,9.831,3.538,12s.2,5.134.342,6.985a1.228,1.228,0,0,0,1.134,1.134c1.851.143,4.816.342,6.985.342s5.134-.2,6.985-.342a1.229,1.229,0,0,0,1.134-1.134c.143-1.851.342-4.816.342-6.985s-.2-5.134-.342-6.985a1.228,1.228,0,0,0-1.134-1.134C17.134,3.738,14.169,3.538,12,3.538ZM4.9,2.347C6.748,2.2,9.765,2,12,2s5.252.2,7.1.347A2.767,2.767,0,0,1,21.653,4.9C21.8,6.748,22,9.765,22,12s-.2,5.252-.347,7.1A2.767,2.767,0,0,1,19.1,21.653C17.252,21.8,14.234,22,12,22s-5.252-.2-7.1-.347A2.767,2.767,0,0,1,2.347,19.1C2.2,17.252,2,14.234,2,12s.2-5.252.347-7.1A2.767,2.767,0,0,1,4.9,2.347Z" fill="#030d45" fill-rule="evenodd"/>
    <path id="Path_205" d="M7.9,12.256a.769.769,0,0,1,.769.769V16.1a.769.769,0,0,1-1.538,0V13.026A.769.769,0,0,1,7.9,12.256Z" fill="#030d45" fill-rule="evenodd"/>
    <path id="Path_206" d="M12,9.179a.769.769,0,0,1,.769.769V16.1a.769.769,0,0,1-1.538,0V9.949A.769.769,0,0,1,12,9.179Z" fill="#030d45" fill-rule="evenodd"/>
    <path id="Path_207" d="M16.1,6.1a.769.769,0,0,1,.769.769V16.1a.769.769,0,0,1-1.538,0V6.872A.769.769,0,0,1,16.1,6.1Z" fill="#030d45" fill-rule="evenodd"/>
  </g>
</svg>
