<svg xmlns="http://www.w3.org/2000/svg" width="379.707" height="379.224" viewBox="0 0 379.707 379.224">
  <g id="menu-dots-svgrepo-com" transform="translate(189.586 -1.815) rotate(45)">
    <g id="Group_188">
      <g id="Group_179">
        <path id="Path_181" d="M45.775,87.412A43.537,43.537,0,1,1,89.31,43.871,43.6,43.6,0,0,1,45.775,87.412Z"/>
      </g>
      <g id="Group_181">
        <path id="Path_183" d="M225.324,87.073a43.537,43.537,0,1,1,43.547-43.538A43.586,43.586,0,0,1,225.324,87.073Z"/>
      </g>
      <g id="Group_185">
        <path id="Path_187" d="M45.775,270.342A43.538,43.538,0,1,1,89.31,226.8,43.6,43.6,0,0,1,45.775,270.342Z"/>
      </g>
      <g id="Group_187">
        <path id="Path_189" d="M225.324,270a43.535,43.535,0,1,1,43.547-43.535A43.581,43.581,0,0,1,225.324,270Z"/>
      </g>
    </g>
  </g>
</svg>
