<svg xmlns="http://www.w3.org/2000/svg" width="18" height="20" viewBox="0 0 18 20">
  <g id="info-triangle-svgrepo-com" transform="translate(21 -2) rotate(90)">
    <path id="Path_3" d="M9.938,4.059a2.536,2.536,0,0,1,4.124,0c1.235,1.751,2.983,4.3,4.153,6.3,1.228,2.1,2.626,4.967,3.556,6.945a2.42,2.42,0,0,1-2.132,3.423C17.471,20.849,14.357,21,12,21s-5.471-.151-7.639-.276A2.42,2.42,0,0,1,2.229,17.3c.93-1.978,2.328-4.849,3.556-6.945C6.955,8.358,8.7,5.811,9.938,4.059Zm2.975.76a1.12,1.12,0,0,0-1.827,0c-1.234,1.749-2.953,4.257-4.092,6.2C5.8,13.061,4.424,15.884,3.5,17.859a1.072,1.072,0,0,0,.948,1.52c2.165.124,5.244.273,7.557.273s5.391-.149,7.556-.273a1.072,1.072,0,0,0,.948-1.52c-.929-1.975-2.3-4.8-3.5-6.839C15.866,9.076,14.147,6.568,12.913,4.819Z" fill="#030d45" fill-rule="evenodd"/>
  </g>
</svg>
