<svg xmlns="http://www.w3.org/2000/svg" width="20" height="20" viewBox="0 0 20 20">
    <g id="x-square-svgrepo-com" transform="translate(-2 -2)">
        <path id="Path_202" d="M9.4,9.4a.769.769,0,0,1,1.088,0L12,10.912,13.507,9.4A.769.769,0,1,1,14.6,10.493L13.088,12,14.6,13.507A.769.769,0,1,1,13.507,14.6L12,13.088,10.493,14.6A.769.769,0,1,1,9.4,13.507L10.912,12,9.4,10.493A.769.769,0,0,1,9.4,9.4Z" transform="translate(12 -4.971) rotate(45)" fill="#030d45" fill-rule="evenodd"/>
        <path id="Path_203" d="M12,3.538c-2.169,0-5.134.2-6.985.342A1.228,1.228,0,0,0,3.881,5.015C3.738,6.866,3.538,9.831,3.538,12s.2,5.134.342,6.985a1.228,1.228,0,0,0,1.134,1.134c1.851.143,4.816.342,6.985.342s5.134-.2,6.985-.342a1.229,1.229,0,0,0,1.134-1.134c.143-1.851.342-4.816.342-6.985s-.2-5.134-.342-6.985a1.228,1.228,0,0,0-1.134-1.134C17.134,3.738,14.169,3.538,12,3.538ZM4.9,2.347C6.748,2.2,9.765,2,12,2s5.252.2,7.1.347A2.767,2.767,0,0,1,21.653,4.9C21.8,6.748,22,9.765,22,12s-.2,5.252-.347,7.1A2.767,2.767,0,0,1,19.1,21.653C17.252,21.8,14.234,22,12,22s-5.252-.2-7.1-.347A2.767,2.767,0,0,1,2.347,19.1C2.2,17.252,2,14.234,2,12s.2-5.252.347-7.1A2.767,2.767,0,0,1,4.9,2.347Z" fill="#030d45" fill-rule="evenodd"/>
    </g>
</svg>
