<svg xmlns="http://www.w3.org/2000/svg" width="20" height="20" viewBox="0 0 20 20">
    <g id="x-square-svgrepo-com" transform="translate(-2 -2)">
        <path id="Path_203" d="M12,3.538c-2.169,0-5.134.2-6.985.342A1.228,1.228,0,0,0,3.881,5.015C3.738,6.866,3.538,9.831,3.538,12s.2,5.134.342,6.985a1.228,1.228,0,0,0,1.134,1.134c1.851.143,4.816.342,6.985.342s5.134-.2,6.985-.342a1.229,1.229,0,0,0,1.134-1.134c.143-1.851.342-4.816.342-6.985s-.2-5.134-.342-6.985a1.228,1.228,0,0,0-1.134-1.134C17.134,3.738,14.169,3.538,12,3.538ZM4.9,2.347C6.748,2.2,9.765,2,12,2s5.252.2,7.1.347A2.767,2.767,0,0,1,21.653,4.9C21.8,6.748,22,9.765,22,12s-.2,5.252-.347,7.1A2.767,2.767,0,0,1,19.1,21.653C17.252,21.8,14.234,22,12,22s-5.252-.2-7.1-.347A2.767,2.767,0,0,1,2.347,19.1C2.2,17.252,2,14.234,2,12s.2-5.252.347-7.1A2.767,2.767,0,0,1,4.9,2.347Z" fill="#030d45" fill-rule="evenodd"/>
        <path id="rocket-svgrepo-com" d="M11.57,2.95a.129.129,0,0,0-.167-.167L2.855,6.108a.129.129,0,0,0,0,.239l3.282,1.4a.9.9,0,0,1,.476.476l1.4,3.282a.129.129,0,0,0,.239,0Zm-.447-.887A.9.9,0,0,1,12.29,3.23L8.966,11.779a.9.9,0,0,1-1.67.027L5.9,8.523a.129.129,0,0,0-.068-.068l-3.282-1.4a.9.9,0,0,1,.027-1.67Z" transform="translate(4.823 4.823)" fill="#030d45" fill-rule="evenodd"/>
    </g>
</svg>
