<svg width="24px" height="24px" viewBox="0 0 24 24" fill="none" xmlns="http://www.w3.org/2000/svg">
  <path d="M7.71429 4.85714V19.1429C7.71429 20.6735 6.4898 22 4.85714 22C3.22449 22 2 20.6735 2 19.1429V4.85714C2 3.32653 3.22449 2 4.85714 2C6.4898 2 7.71429 3.32653 7.71429 4.85714Z" fill="#030D45"/>
  <path d="M14.8571 9.95918V19.1429C14.8571 20.6735 13.6327 22 12 22C10.3673 22 9.14286 20.6735 9.14286 19.1429V9.95918C9.14286 8.42857 10.3673 7.10204 12 7.10204C13.6327 7.10204 14.8571 8.42857 14.8571 9.95918Z" fill="#030D45"/>
  <path d="M22 4.85714V19.1429C22 20.6735 20.7755 22 19.1429 22C17.5102 22 16.2857 20.7755 16.2857 19.1429V4.85714C16.2857 3.32653 17.5102 2 19.1429 2C20.7755 2 22 3.32653 22 4.85714Z" fill="#030D45"/>
</svg>
