<svg xmlns="http://www.w3.org/2000/svg" width="53.434" height="48" viewBox="0 0 53.434 48">
  <g id="statistic" transform="translate(0 -15)">
    <path id="Path_193" d="M10.234,15H1.721A1.721,1.721,0,0,0,0,16.721v8.513a1.721,1.721,0,0,0,1.721,1.721h8.513a1.721,1.721,0,0,0,1.721-1.721V16.721A1.721,1.721,0,0,0,10.234,15Z"/>
    <path id="Path_194" d="M100.721,26.955h14.491a1.721,1.721,0,0,0,1.721-1.721V16.721A1.721,1.721,0,0,0,115.211,15H100.721A1.721,1.721,0,0,0,99,16.721v8.513A1.721,1.721,0,0,0,100.721,26.955Z" transform="translate(-81.068)"/>
    <path id="Path_195" d="M10.234,114.5H1.721A1.721,1.721,0,0,0,0,116.221v8.513a1.721,1.721,0,0,0,1.721,1.721h8.513a1.721,1.721,0,0,0,1.721-1.721v-8.513A1.721,1.721,0,0,0,10.234,114.5Z" transform="translate(0 -81.477)"/>
    <path id="Path_196" d="M132.781,114.5h-32.06A1.721,1.721,0,0,0,99,116.221v8.513a1.721,1.721,0,0,0,1.721,1.721h32.06a1.721,1.721,0,0,0,1.721-1.721v-8.513A1.721,1.721,0,0,0,132.781,114.5Z" transform="translate(-81.068 -81.477)"/>
    <path id="Path_197" d="M11.955,215.721A1.721,1.721,0,0,0,10.234,214H1.721A1.721,1.721,0,0,0,0,215.721v8.513a1.721,1.721,0,0,0,1.721,1.721h8.513a1.721,1.721,0,0,0,1.721-1.721Z" transform="translate(0 -162.955)"/>
    <path id="Path_198" d="M125.989,215.721A1.721,1.721,0,0,0,124.268,214H100.721A1.721,1.721,0,0,0,99,215.721v8.513a1.721,1.721,0,0,0,1.721,1.721h23.547a1.721,1.721,0,0,0,1.721-1.721Z" transform="translate(-81.068 -162.955)"/>
  </g>
</svg>
