<svg xmlns="http://www.w3.org/2000/svg" width="20" height="20" viewBox="0 0 20 20">
  <g id="x-square-svgrepo-com" transform="translate(-2 -2)">
    <path id="Path_203" d="M12,3.538c-2.169,0-5.134.2-6.985.342A1.228,1.228,0,0,0,3.881,5.015C3.738,6.866,3.538,9.831,3.538,12s.2,5.134.342,6.985a1.228,1.228,0,0,0,1.134,1.134c1.851.143,4.816.342,6.985.342s5.134-.2,6.985-.342a1.229,1.229,0,0,0,1.134-1.134c.143-1.851.342-4.816.342-6.985s-.2-5.134-.342-6.985a1.228,1.228,0,0,0-1.134-1.134C17.134,3.738,14.169,3.538,12,3.538ZM4.9,2.347C6.748,2.2,9.765,2,12,2s5.252.2,7.1.347A2.767,2.767,0,0,1,21.653,4.9C21.8,6.748,22,9.765,22,12s-.2,5.252-.347,7.1A2.767,2.767,0,0,1,19.1,21.653C17.252,21.8,14.234,22,12,22s-5.252-.2-7.1-.347A2.767,2.767,0,0,1,2.347,19.1C2.2,17.252,2,14.234,2,12s.2-5.252.347-7.1A2.767,2.767,0,0,1,4.9,2.347Z" fill="#030d45" fill-rule="evenodd"/>
    <g id="trash-bin-svgrepo-com" transform="translate(3.846 4.806)">
      <path id="Path_208" d="M5.465,8.154a.4.4,0,0,1,.392.409l-.4-.01-.4-.01A.4.4,0,0,1,5.465,8.154Zm-.01.4-.4-.01v.087c0,.056,0,.138,0,.239,0,.2-.008.487-.011.81-.006.644-.006,1.451.018,2.085.027.693.1,1.59.157,2.257a1.458,1.458,0,0,0,1.46,1.323h3.961a1.458,1.458,0,0,0,1.46-1.323c.059-.668.13-1.565.157-2.257.024-.633.024-1.44.018-2.085,0-.323-.007-.607-.011-.81,0-.1,0-.183,0-.239V8.544a.4.4,0,0,0-.8.019l.256-.006-.256.006v.085c0,.055,0,.136,0,.237,0,.2.008.483.011.8.006.642.006,1.433-.018,2.047-.026.672-.1,1.552-.155,2.218a.656.656,0,0,1-.659.594H6.671a.656.656,0,0,1-.659-.594c-.059-.666-.129-1.546-.155-2.218-.024-.614-.024-1.4-.018-2.047,0-.32.007-.6.011-.8,0-.1,0-.181,0-.237V8.563Z" transform="translate(-0.496 -2.958)" fill="#030d45" fill-rule="evenodd"/>
      <path id="Path_209" d="M4,5.476a.4.4,0,0,1,.4-.4h7.505a.4.4,0,1,1,0,.8H4.4A.4.4,0,0,1,4,5.476Z" transform="translate(0 -1.479)" fill="#030d45" fill-rule="evenodd"/>
      <path id="Path_210" d="M7.7,2.775A1.476,1.476,0,0,1,9,2h1.287a1.476,1.476,0,0,1,1.3.775l.555,1.034a.4.4,0,0,1-.166.541.4.4,0,0,1-.544-.164l-.555-1.034a.671.671,0,0,0-.591-.352H9a.671.671,0,0,0-.591.352L7.854,4.185a.4.4,0,0,1-.544.164.4.4,0,0,1-.166-.541Z" transform="translate(-1.488)" fill="#030d45" fill-rule="evenodd"/>
    </g>
  </g>
</svg>
